<svg xmlns="http://www.w3.org/2000/svg" xmlns:xlink="http://www.w3.org/1999/xlink" fill="none" version="1.1" width="15.630859375" height="14.1484375" viewBox="0 0 15.630859375 14.1484375"><defs><linearGradient x1="0" y1="0" x2="1.0061420845502564" y2="0.022665557911544454" id="master_svg0_58_40528"><stop offset="0%" stop-color="#FEAF30" stop-opacity="1"/><stop offset="100%" stop-color="#F74B0E" stop-opacity="1"/></linearGradient><linearGradient x1="0" y1="0.2547222077846527" x2="0.8875059921978632" y2="0.7584354359829177" id="master_svg1_58_40545"><stop offset="0%" stop-color="#F53807" stop-opacity="1"/><stop offset="100%" stop-color="#FDAE2F" stop-opacity="1"/></linearGradient><linearGradient x1="1.0973483324050903" y1="0.3159823715686798" x2="0.4332384200927174" y2="0.396745923589938" id="master_svg2_58_40522"><stop offset="0%" stop-color="#FA410C" stop-opacity="1"/><stop offset="100%" stop-color="#FDB52D" stop-opacity="1"/></linearGradient><linearGradient x1="-0.5716275572776794" y1="0.33770471811294556" x2="-0.0495276622266219" y2="1.580059267000745" id="master_svg3_58_40525"><stop offset="0%" stop-color="#FDAE2C" stop-opacity="1"/><stop offset="100%" stop-color="#F8410E" stop-opacity="1"/></linearGradient></defs><path d="M3.4889496749999998,3.3562655L1.521484375,0L11.358813275,0C12.287598375,0.14178872,13.119997375,0.50612527,13.673474375,1.0415993L3.4889496749999998,3.3562655Z" fill="url(#master_svg0_58_40528)" fill-opacity="1"/><g><path d="M10.897193456201173,3.350713980810547L3.499858856201172,3.3551959808105467L13.673588856201173,1.0358390808105469C17.377053856201172,3.929171780810547,15.293860856201173,9.137168880810547,11.821859356201172,9.831571580810547L6.193934956201172,9.831571580810547L6.934703856201172,6.702385380810547L11.044439356201172,6.702385380810547L11.044439356201172,6.700702180810547Q11.12681295620117,6.700594880810547,11.208779356201171,6.692420980810547Q11.290745756201172,6.6842469808105465,11.371517156201172,6.668084580810547Q11.452289556201173,6.651922180810547,11.531089756201172,6.627927280810547Q11.609890956201172,6.603932380810547,11.685962656201172,6.572334780810547Q11.762034456201173,6.540737580810547,11.834646256201172,6.501842480810547Q11.907257056201171,6.462946880810547,11.975709956201172,6.417126680810547Q12.044163656201173,6.3713073808105465,12.107800456201172,6.319003580810547Q12.171438256201172,6.266699780810547,12.229645756201172,6.2084154808105465Q12.287855156201172,6.150131180810547,12.340074556201172,6.086426280810547Q12.392295856201171,6.022721280810547,12.438025456201173,5.954208380810547Q12.483756056201171,5.885695480810547,12.522557256201171,5.813033080810547Q12.561357456201172,5.740370780810547,12.592855456201171,5.664257980810547Q12.624353456201172,5.588145280810547,12.648244856201172,5.509313080810547Q12.672138256201173,5.430480980810547,12.688194256201172,5.349688080810547Q12.704252256201173,5.268895180810547,12.712319356201172,5.186918280810547Q12.720387456201172,5.104941380810547,12.720387456201172,5.022568180810547Q12.720387456201172,4.946992380810547,12.713594456201172,4.871723180810546Q12.706800456201172,4.796453680810547,12.693269756201172,4.7220999808105475Q12.679737056201171,4.647745580810547,12.659576456201172,4.5749087808105475Q12.639416656201172,4.502072080810547,12.612791056201171,4.431342580810547Q12.586164456201171,4.360612680810547,12.553288456201171,4.292562480810547Q12.520412456201171,4.224512580810547,12.481554056201173,4.1596936808105465Q12.442693756201171,4.094873880810547,12.398164756201172,4.033809880810547Q12.353635756201172,3.972745880810547,12.303797756201172,3.915931980810547Q12.253959656201172,3.859117780810547,12.199216856201172,3.807013480810547Q12.144474056201172,3.754909280810547,12.085269956201172,3.7079369808105467Q12.026063956201172,3.6609639808105467,11.962877256201171,3.619503480810547Q11.899688756201172,3.578042780810547,11.833030656201172,3.542429880810547Q11.766371756201172,3.506816880810547,11.696782156201172,3.477339780810547Q11.627191556201172,3.447862880810547,11.555234956201172,3.424760780810547Q11.483276356201172,3.4016582808105467,11.409532556201171,3.385117780810547Q11.335788756201172,3.368576980810547,11.260858056201172,3.358732180810547C11.254992956201171,3.355975380810547,11.249104456201172,3.353232880810547,11.243193156201173,3.350504380810547L11.185284656201173,3.350539480810547Q11.113898756201172,3.344432880810547,11.042252056201171,3.344432880810547Q10.969586856201172,3.344432880810547,10.897193456201173,3.350713980810547Z" fill-rule="evenodd" fill="url(#master_svg1_58_40545)" fill-opacity="1"/></g><path d="M7.365234375,4.072265625L10.854409975,14.149117625L14.730572174999999,14.149117625L11.219354375,4.072265625L7.365234375,4.072265625Z" fill="url(#master_svg2_58_40522)" fill-opacity="1" transform="matrix(-1,0,0,1,14.73046875,0)"/><path d="M3.51171875,4.072265625L7.3661220499999995,4.072265625L3.87536284,14.149117625L3.51171875,4.072265625Z" fill="url(#master_svg3_58_40525)" fill-opacity="1"/></svg>