<svg xmlns="http://www.w3.org/2000/svg" width="90" height="90" fill="none"><g clip-path="url(#clip0_473_8656)"><path fill="url(#paint0_linear_473_8656)" d="M90 0H0v90h90V0z"/><path fill="url(#paint1_linear_473_8656)" d="M23.71 55.11L0 77.49V90h64.53l-34.8-34.8a4.327 4.327 0 00-6.02-.09z"/><path fill="#F4F5F5" d="M31.5 42.74c7.46 0 13.5-6.04 13.5-13.5s-6.04-13.5-13.5-13.5S18 21.78 18 29.24s6.04 13.5 13.5 13.5z"/><path fill="url(#paint2_linear_473_8656)" d="M90 70.47L65.78 46.25a4.327 4.327 0 00-6.02-.09L13.31 90H90V70.47z"/></g><defs><linearGradient id="paint0_linear_473_8656" x1="45" x2="45" y1="0" y2="90" gradientUnits="userSpaceOnUse"><stop stop-color="#F8604A"/><stop offset="1" stop-color="#F5F5F5"/></linearGradient><linearGradient id="paint1_linear_473_8656" x1="25.225" x2="25.225" y1="32.682" y2="106.625" gradientUnits="userSpaceOnUse"><stop stop-color="#F8604A"/><stop offset="1" stop-color="#010101"/></linearGradient><linearGradient id="paint2_linear_473_8656" x1="59.587" x2="57.099" y1="5.598" y2="71.15" gradientUnits="userSpaceOnUse"><stop stop-color="#F8604A"/><stop offset="1"/></linearGradient><clipPath id="clip0_473_8656"><rect width="90" height="90" fill="#fff" rx="45"/></clipPath></defs></svg>